<svg width="273" height="304" viewBox="0 0 273 304" fill="none" xmlns="http://www.w3.org/2000/svg">
<path d="M272.691 89.0857C272.691 83.9908 271.582 79.4866 269.362 75.6259C267.175 71.8285 263.899 68.6429 259.493 66.1218C223.194 45.4259 186.852 24.7933 150.553 4.07627C140.768 -1.50382 131.283 -1.3034 121.573 4.36108C107.126 12.7892 34.7733 53.7591 13.22 66.1113C4.33199 71.1956 0.0106699 78.9698 0.0106699 89.0751C0 130.699 0.0106699 172.312 0 213.936C0 218.915 1.05632 223.335 3.19031 227.143C5.37764 231.056 8.70666 234.326 13.2094 236.9C34.7733 249.242 107.126 290.222 121.573 298.65C131.293 304.315 140.779 304.526 150.563 298.935C186.852 278.218 223.194 257.585 259.503 236.89C264.006 234.316 267.324 231.046 269.522 227.132C271.646 223.324 272.713 218.915 272.713 213.926C272.702 213.926 272.702 130.71 272.691 89.0857Z" fill="#A179DC"/>
<path d="M136.77 151.11L3.19287 227.153C5.38021 231.066 8.70922 234.336 13.2119 236.91C34.7759 249.252 107.129 290.232 121.576 298.66C131.296 304.325 140.782 304.536 150.566 298.945C186.854 278.228 223.196 257.596 259.506 236.9C264.009 234.326 267.327 231.056 269.525 227.142L136.77 151.11Z" fill="#280068"/>
<path d="M272.685 89.0993C272.685 84.0044 271.575 79.5002 269.355 75.6395L136.771 151.113L269.516 227.136C271.639 223.328 272.706 218.918 272.706 213.929C272.695 213.939 272.695 130.723 272.685 89.0993Z" fill="#390091"/>
<path d="M215.422 122.683V136.891H229.795V122.683H236.986V136.891H251.359V144.001H236.986V158.209H251.359V165.319H236.986V179.528H229.795V165.319H215.422V179.528H208.231V165.319H193.858V158.209H208.231V144.001H193.858V136.891H208.231V122.683H215.422ZM229.805 144.001H215.433V158.209H229.805V144.001Z" fill="white"/>
<path d="M137.085 51.3126C174.579 51.3126 207.325 71.4494 224.855 101.375L224.685 101.09L180.565 126.206C171.869 111.66 155.938 101.839 137.661 101.639H137.085C109.204 101.639 86.6051 123.98 86.6051 151.533C86.6051 160.541 89.0379 168.99 93.2631 176.29C101.959 191.311 118.316 201.437 137.085 201.437C155.96 201.437 172.413 191.184 181.066 176.005L180.853 176.374L224.909 201.606C207.57 231.278 175.272 251.352 138.216 251.753L137.085 251.763C99.4731 251.763 66.631 231.511 49.143 201.427C40.607 186.743 35.7202 169.718 35.7202 151.554C35.7202 96.1748 81.0994 51.3126 137.085 51.3126Z" fill="white"/>
</svg>
