<svg width="240" height="248" viewBox="0 0 240 248" fill="none" xmlns="http://www.w3.org/2000/svg">
<path d="M183.851 184.521C185.578 170.357 185.06 168.284 195.597 170.616L198.188 170.875C206.306 171.221 216.929 169.58 223.148 166.643C236.535 160.425 244.48 150.061 231.266 152.738C201.124 158.957 199.052 148.766 199.052 148.766C230.921 101.523 244.221 41.4982 232.735 26.8159C201.383 -13.2582 147.059 5.74241 146.195 6.17424L145.936 6.26061C139.977 5.05148 133.327 4.27418 125.813 4.18781C112.167 3.92871 101.803 7.72884 93.857 13.7745C93.857 13.7745 -2.96001 -26.1269 1.44469 63.9535C2.39472 83.1269 28.9093 208.963 60.5195 170.962C72.0926 157.057 83.2339 145.311 83.2339 145.311C88.7614 149.025 95.3252 150.838 102.407 150.234L102.925 149.802C102.753 151.616 102.839 153.429 103.185 155.243C95.0661 164.312 97.398 165.953 81.1611 169.321C64.6651 172.689 74.3381 178.735 80.6429 180.376C88.3295 182.276 106.035 185.04 118.04 168.198L117.521 170.098C120.717 172.689 120.544 188.494 120.976 199.722C121.408 210.95 122.185 221.573 124.517 227.791C126.849 234.009 129.526 249.987 150.945 245.41C168.823 241.61 182.469 236.082 183.765 184.78" fill="#231F20"/>
<path d="M183.851 184.521C185.578 170.357 185.06 168.284 195.597 170.616L198.188 170.875C206.306 171.221 216.929 169.58 223.148 166.643C236.535 160.425 244.48 150.061 231.266 152.738C201.124 158.957 199.052 148.766 199.052 148.766C230.921 101.523 244.221 41.4982 232.735 26.8159C201.383 -13.2582 147.059 5.74241 146.195 6.17424L145.936 6.26061C139.977 5.05148 133.327 4.27418 125.813 4.18781C112.167 3.92871 101.803 7.72884 93.857 13.7745C93.857 13.7745 -2.96001 -26.1269 1.44469 63.9535C2.39472 83.1269 28.9093 208.963 60.5195 170.962C72.0926 157.057 83.2339 145.311 83.2339 145.311C88.7614 149.025 95.3252 150.838 102.407 150.234L102.925 149.802C102.753 151.616 102.839 153.429 103.185 155.243C95.0661 164.312 97.398 165.953 81.1611 169.321C64.6651 172.689 74.3381 178.735 80.6429 180.376C88.3295 182.276 106.035 185.04 118.04 168.198L117.521 170.098C120.717 172.689 120.544 188.494 120.976 199.722C121.408 210.95 122.185 221.573 124.517 227.791C126.849 234.009 129.526 249.987 150.945 245.41C168.823 241.61 182.469 236.082 183.765 184.78" stroke="#231F20" stroke-width="2.598"/>
<path d="M231.351 152.738C201.209 158.957 199.136 148.766 199.136 148.766C231.005 101.523 244.306 41.4982 232.819 26.8159C201.468 -13.2582 147.143 5.74241 146.28 6.17424L146.021 6.26061C140.061 5.05148 133.411 4.27418 125.897 4.18781C112.251 3.92871 101.887 7.72884 93.9415 13.7745C93.9415 13.7745 -2.87554 -26.1269 1.52916 63.9535C2.4792 83.1269 28.9937 208.963 60.6039 170.962C72.1771 157.057 83.3184 145.311 83.3184 145.311C88.8458 149.025 95.4961 150.838 102.492 150.234L103.01 149.802C102.837 151.529 102.924 153.257 103.269 155.243C95.1506 164.312 97.4825 165.952 81.2456 169.321C64.7495 172.689 74.4226 178.735 80.7274 180.376C88.414 182.276 106.119 185.04 118.124 168.198L117.606 170.098C120.801 172.689 123.047 186.68 122.615 199.463C122.183 212.245 122.011 220.968 124.515 227.791C127.02 234.614 129.524 249.987 150.943 245.41C168.821 241.61 178.063 231.677 179.358 215.095C180.308 203.349 182.381 205.077 182.467 194.54L184.108 189.531C186.008 173.553 184.454 168.457 195.422 170.789L198.013 171.048C206.132 171.394 216.755 169.753 222.973 166.816C236.36 160.598 244.306 150.234 231.092 152.911L231.351 152.738Z" fill="#417BA2"/>
<path d="M146.199 5.74355C142.744 6.77995 200.092 -15.1572 232.652 26.4715C244.139 41.1539 230.925 101.179 198.969 148.421M119.512 161.894C118.648 191.605 119.684 221.487 122.621 228.829C125.557 236.083 131.776 250.247 153.195 245.67C171.072 241.87 177.55 234.442 180.4 218.033L186.964 165.695L119.512 161.894ZM93.947 12.9983C93.947 12.9983 -2.95634 -26.6439 1.53472 63.4365C2.39839 82.6098 28.9993 208.446 60.6095 170.445C72.1826 156.626 82.633 145.657 82.633 145.657L93.947 12.9983Z" stroke="white" stroke-width="0.866" stroke-linecap="round" stroke-linejoin="round"/>
<path d="M198.893 148.421C198.893 148.421 200.966 158.612 231.194 152.394C244.409 149.63 236.376 160.08 223.076 166.299C212.107 171.395 187.407 172.69 186.975 165.694C185.938 147.385 199.93 152.912 198.893 148.421ZM198.893 148.421C197.943 144.275 191.725 140.303 187.579 130.198C183.952 121.388 137.919 54.1086 200.362 64.1271C202.607 63.6089 184.038 4.7069 125.654 3.75687C67.2706 2.80683 69.1707 75.6139 69.1707 75.6139" stroke="white" stroke-width="0.866" stroke-linecap="round" stroke-linejoin="bevel"/>
<path d="M103.09 154.64C94.9718 163.708 97.3037 165.349 81.0668 168.718C64.5708 172.086 74.2438 178.132 80.5486 179.773C88.2352 181.673 105.94 184.436 117.945 167.595C121.573 162.499 117.945 154.381 112.936 152.308C110.518 151.185 107.236 149.976 103.09 154.64Z" stroke="white" stroke-width="0.866" stroke-linejoin="round"/>
<path d="M102.579 154.466C101.715 149.112 104.306 142.72 107.07 135.293C111.215 124.152 120.888 112.924 113.115 77.5136C107.415 51.0854 69.0683 71.9862 69.0683 75.6136C69.0683 79.241 70.7957 93.7506 68.4638 110.765C65.3546 132.875 82.5415 151.616 102.319 149.716" stroke="white" stroke-width="0.866" stroke-linecap="round" stroke-linejoin="round"/>
<path d="M93.4345 75.0106C93.2618 76.2198 95.68 79.5017 98.7892 79.9335C101.898 80.3653 104.576 77.8607 104.749 76.5652C104.921 75.2697 102.503 73.9742 99.3938 73.5424C96.2846 73.1106 93.6072 73.8015 93.4345 75.0106Z" fill="white" stroke="white" stroke-width="0.289"/>
<path d="M189.136 72.506C189.309 73.7152 186.891 76.9971 183.781 77.4289C180.672 77.8608 177.909 75.3561 177.822 74.0606C177.736 72.7651 180.068 71.4696 183.177 71.0378C186.286 70.606 188.963 71.2969 189.136 72.506Z" fill="white" stroke="white" stroke-width="0.144"/>
<path d="M200.349 64.0409C200.867 73.6276 198.276 80.1915 197.931 90.3827C197.412 105.238 205.013 122.252 193.612 139.266" stroke="white" stroke-width="0.866" stroke-linecap="round" stroke-linejoin="round"/>
</svg>
